<?xml version="1.0" encoding="UTF-8"?><svg id="a" xmlns="http://www.w3.org/2000/svg" viewBox="0 0 302.45 227.2"><defs><style>.b,.c{fill:#ffc725;}.c{font-family:BambooFont, Bamboo;font-size:33px;stroke:#ffc725;stroke-miterlimit:10;stroke-width:2px;}</style></defs><path class="b" d="m202.51,91.06c-.43-8.92-.41-17.64.41-26.57,1.44-15.61,5.34-20.56,7.21-21.83.63,1.29,1.67,4.16,2.56,10.12-.04.1-.13.29-.31.58-1.21,1.88-1.66,3.61-1.55,5.13.58,7.76,4.41,11.17,7.81,12.45,2.14.97,6.76,2.21,22.31,3.65,5.27.49,9.66.78,13.07.87-1.58.55-3.29,1.23-5.11,1.98-6.13,2.55-10.59,4.25-13.23,5-.05.01-.08.02-.13.04-.05.02-.08.03-.13.04-.36.13-2.25.61-10.78,1.95l-.13.02c-5.32.99-9.32,2.37-12.25,4.19-1.03.64-1.98,1.44-2.88,2.36h92.97c.02-.12.04-.24.06-.37.32-2.75-1.86-5.3-14.58-10.91-9.06-4-16.09-6.24-21.24-6.54,1.73-1.14,3.41-2.75,5.07-4.85,2.53-3.19,3.59-5.94,3.19-8.49-.02-.11-.03-.17-.04-.28-.04-.11-.06-.16-.1-.26-1.01-2.81-1.88-5.33-2.55-7.47-.05-.17-.08-.26-.13-.43-.07-.1-.1-.15-.17-.25-.23-.53-1.07-2.64-3.47-11.12-1.99-7.05-5.53-13.42-10.66-18.18-9.39-8.72-22.17-12.71-34.09-16.34-9.45-2.88-18.5-4.55-26.18-5.23-4.34-.38-8.41-.43-12.08-.14-1.9.15-3.63.39-5.14.69-.1.02-.16.04-.26.06-19.72,5.11-28.47,25.36-31.29,43.7-2.38,15.49-1.92,31.09.22,46.41h53.61Z"/><path class="b" d="m227.41,127.06c-.75,3.56-1.82,7.31-3.2,11.25-2.26,6.47-3.79,8.87-4.46,9.69-7.04-4.36-10.26-12.55-12.26-20.94h-50.58c3.27,10.18,7.55,20.23,13.01,29.09,5.95,9.67,15.01,19.32,27,20.78.06,0,.08,0,.14.01.06,0,.08,0,.14,0,8.78.19,15.33.08,19.5-.26,8.49.03,14.38-.22,18.02-.72,1.23-.17,2.23-.37,3.03-.62,3.07-.93,6.01-2.42,8.74-4.37,10.53-7.51,18.03-18.57,23.01-30.37,1.88-4.44,3.57-8.98,5.16-13.55h-47.26Z"/><text class="c" transform="translate(29.99 121.04) scale(1.25 .9)"><tspan x="0" y="0">RAP-GENIE</tspan></text><path class="b" d="m75.36,91.06c-.84-2.26-1.75-4.7-2.82-7.55,8.19-10.34,17.96-24.93,30.64-28.24.02,0,.04,0,.06-.01.01.03.03.07.03.1,2.11,9.09-3.85,20.44-7.99,29.2-1.09,2.3-2.15,4.47-3.18,6.51h58.39c6.53-12.82,10.46-26.33,6.85-39.19-1.77-6.32-6.43-11.9-12.95-16.36-.84-.57-3.36-2.11-19.38-10.45-4.69-2.44-9.73-4.93-15.01-7.35-5.86-2.69-12.1-4.13-18.36-4.03-3.33.06-6.59.44-9.58,1.04-7.79,1.54-16.11,5.68-24.44,12.25-10.1,7.97-13.6,9.6-14.68,9.92-1.05.31-3.17.72-7.3,1.01-2.42.17-5.31.27-8.6.32-3.56.06-6.61.2-9.08.4-3.84.31-6.41.82-8.03,1.47-4.95,2-12.77,6.57-8.9,15.1.04.08.05.11.09.19.66,1.32,1.8,2.54,3.57,3.84.06.05.18.13.32.42,5.17,10.45,10.26,20.92,15.22,31.43h55.13Z"/><path class="b" d="m186.56,152.96c-.31-.11-.47-.16-.78-.27-2.36-.83-4.51-1.38-6.25-1.67-2.43-.4-4.4-.69-5.91-.78-14.48-7.78-28.88-15.71-43.53-23.18H36.52c12.14,28.21,22.92,56.96,31.32,86.78.47,1.75.56,2.84.55,3.43-.02,1.88.12,3.39.42,4.6,1.47,5.86,8.1,6,18.18,4.58,1.79-.25,3.54-.5,5.14-.78,6.26-1.09,11-2.52,14.37-4.16,9.7-4.71,9.33-12.13,8.61-15.15-.46-1.9-1.68-3.89-4-6.46-1.79-1.98-2.17-3.06-2.24-3.34-2.58-10.17-5.37-20.32-8.35-30.38,15.81,7.62,31.62,15.22,47.56,22.57,2.39,2.13,3.15,3.19,3.38,3.56.1.17.15.25.25.42.14.13.21.2.34.33,3.82,3.67,8.1,5.12,12.8,4.39.83-.13,1.69-.33,2.54-.6,5.53-1.74,10.45-8.31,15.78-20.4,5.84-13.26,7.13-19.56,3.95-22.89-.23-.24-.34-.36-.57-.6Z"/></svg>